#!OML:ASF F:\VICON\USERDATA\INSTALL\rory3\rory3.ASF
:FULLY-SPECIFIED
:DEGREES
120
root -5.79817283530492 18.00958539512923 -0.4116756291340631 -149.652302783135 17.066671513244344 -159.53789865348244
lfemur -22.728211802081294 -4.394441832234929 -8.671625401355156
ltibia 23.824785853070125
lfoot 23.491713768002235 -13.63002523320659
ltoes 39.307588604069096
rfemur 3.3250179790784173 -2.262725137594813 17.4927048581047
rtibia 21.175534628999785
rfoot 25.417384621071058 -24.875117802768276
rtoes 10.31705128280194
lowerback -5.337257409534748 7.19093383928838 0.7020440090462091
upperback -4.670043387522325 8.319208106093454 1.5929123751058019
thorax -2.9471104443041964 3.426454979358084 -0.12647436060984774
lowerneck -13.334562656168151 -1.7733789321315392 -0.4146877866818611
upperneck 10.364557858017017 -4.034508881536349 3.279920519172059
head 7.7874848449033545 -0.8043246451242472 0.46974702404208823
lclavicle -6.989499095688794e-15 -4.877163593139357e-15
lhumerus 47.46501920951771 -2.113229377257742 72.62723951639774
lradius 46.46206481358713
lwrist 18.789485913676444
lhand -6.194678666610325 28.83966979334939
lfingers 7.125020000000003
lthumb -169.1404062621771 198.8137573524263
rclavicle -7.033371022079009e-15 -5.167426365162116e-15
rhumerus 51.42565103254725 35.021286992829175 -75.27845249938791
rradius 59.162370049876834
rwrist -60.79296170822644
rhand -36.45409920240614 -7.213435819312
rfingers 7.125020000000003
rthumb -9.671981677520309 -32.5110221203674
121
root -5.814919272780738 18.001384578948905 -0.3924520572229797 -149.62117117201845 17.98177840436282 -159.53896651484763
lfemur -22.432326536744036 -4.175003921768435 -9.20809101271807
ltibia 23.13388632614116
lfoot 24.02484190642771 -13.72791666448557
ltoes 39.63859411175561
rfemur 3.8201398614139084 -2.784137379288132 17.454168670819456
rtibia 21.185558005902827
rfoot 25.91800878755886 -24.602482016941856
rtoes 10.197187218558005
lowerback -5.434115834621007 7.122670258936728 0.6266285550630236
upperback -4.5819046059305535 8.510062068097906 1.6503715989018026
thorax -2.8883081327260385 3.5899655122463736 -0.0556650449125029
lowerneck -13.499417800575726 -1.6977141263656443 -0.18202718672548074
upperneck 10.14247421100088 -3.7538946438823015 3.069584702896174
head 7.641190489601496 -0.7020667267575914 0.4335303188681643
lclavicle -6.990303983328537e-15 -4.880647790236447e-15
lhumerus 46.81821865365204 -2.6161490098931743 72.71378211871102
lradius 47.27903547692236
lwrist 17.681462310852687
lhand -5.641889121754734 29.993308354237744
lfingers 7.125020000000003
lthumb -169.1236467298852 205.46388664849246
rclavicle -7.032713581678988e-15 -5.166959857676035e-15
rhumerus 50.44792501247447 34.75984607254785 -75.51490176223328
rradius 58.66632791008434
rwrist -60.698571163782645
rhand -37.32939260787786 -7.257883482535778
rfingers 7.125020000000003
rthumb -10.979117939203185 -32.64435949679638
122
root -5.8310683945996615 18.00305959685775 -0.3789494215626441 -149.56715895494298 18.77267149578085 -159.71975458713072
lfemur -22.16165369630918 -3.9572909829560414 -9.755909016021917
ltibia 22.577835207247503
lfoot 24.308007826143882 -13.9608106194721
ltoes 39.43086211991633
rfemur 4.3997360507941075 -3.332221473616028 17.491079657671616
rtibia 21.04148822831535
rfoot 26.466731558821294 -24.357697256900703
rtoes 10.123997372457001
lowerback -5.538092753423319 7.008416482977213 0.512737493866677
upperback -4.490647407624665 8.672586483387217 1.7414686662837715
thorax -2.802193732830886 3.748161799805537 0.07280080912223141
lowerneck -13.697558231441732 -1.5918701583362187 0.06385952495052627
upperneck 9.925834011603893 -3.4398045824664623 2.804191394120518
head 7.4755105872441545 -0.5827611864166748 0.3704267583056644
lclavicle -6.991554232254542e-15 -4.8832850012105416e-15
lhumerus 46.02086325057944 -3.246039016680893 72.72638341385775
lradius 48.02252444945687
lwrist 16.713597859955918
lhand -4.940244980866502 31.177233747829387
lfingers 7.125020000000003
lthumb -168.99060459084163 210.80104134140254
rclavicle -7.0314608452095e-15 -5.166058524417464e-15
rhumerus 49.5255133732957 34.69965099620034 -75.62880225054337
rradius 58.15832065947457
rwrist -60.41340481455681
rhand -38.06092626960658 -7.444784985634989
rfingers 7.125020000000003
rthumb -11.990075195984966 -32.991035505386066
123
root -5.846993590090474 18.002828032364516 -0.3615253397471103 -149.5696964165399 19.545226706919028 -159.88194978308144
lfemur -21.92041485910042 -3.750731821876469 -10.317806448212583
ltibia 22.10709938510835
lfoot 24.69899167504422 -14.1857628460999
ltoes 39.65559884554119
rfemur 5.010602207548352 -3.913492661184981 17.50495686769549
rtibia 20.869614267848593
rfoot 26.895933485198746 -24.162354755936292
rtoes 10.071983127161456
lowerback -5.611335361057726 6.975869604163571 0.41427890777055976
upperback -4.380631094348297 8.831062334935599 1.784678918698502
thorax -2.6912042573743706 3.8704155872104264 0.1650180153984202
lowerneck -13.97788001058906 -1.4940737074098842 0.34564268815841104
upperneck 9.787973056555597 -3.103279271329069 2.5287061799641855
head 7.336656371932544 -0.45402209336699706 0.29033214253235107
lclavicle -6.994686563607679e-15 -4.893031858881197e-15
lhumerus 45.088960063858075 -3.9071667614961 72.78854300598437
lradius 48.64961998969014
lwrist 15.99384999546109
lhand -4.353813813126872 32.2712065410258
lfingers 7.125020000000003
lthumb -168.66031514125618 211.9461724638016
rclavicle -7.031443548324871e-15 -5.166053548646903e-15
rhumerus 48.76553811325005 34.64222548250628 -75.61613802772011
rradius 57.551693282236805
rwrist -60.08252502813295
rhand -38.569613768329404 -7.61099800167111
rfingers 7.125020000000003
rthumb -12.571985639096942 -33.333812302335566
124
root -5.8638322810970624 18.005483135441423 -0.344325530827053 -149.62880371739317 20.321093347696923 -160.05457339090654
lfemur -21.687234364283054 -3.545631236518724 -10.865382060408727
ltibia 21.62661017882033
lfoot 25.002100471324383 -14.50270868448916
ltoes 39.72853509394557
rfemur 5.5980011447368785 -4.513772236407695 17.48831686116833
rtibia 20.600353083163466
rfoot 27.329151951028003 -24.047212192997616
rtoes 10.031060004845559
lowerback -5.690286900447841 6.896264458328901 0.2703839594478321
upperback -4.299819405740739 8.940612501546145 1.807464914033187
thorax -2.599044948105023 3.9611658428250243 0.27505534704342915
lowerneck -14.197837172926688 -1.4018587149227684 0.6411573860743195
upperneck 9.684918741555968 -2.8003905757749865 2.2583093045039826
head 7.177789850279109 -0.3676517871380518 0.2002573617298795
lclavicle -6.9959048368948225e-15 -4.8997815595518345e-15
lhumerus 44.070213779829515 -4.594004158640949 72.87066069551808
lradius 49.199103485789905
lwrist 15.507051749020055
lhand -3.7554217739556943 33.22830719814682
lfingers 7.125020000000003
lthumb -168.09043422654238 212.5001010463502
rclavicle -7.030604043795785e-15 -5.165538929941925e-15
rhumerus 48.05160880624234 34.6814640750807 -75.57613072789674
rradius 56.87013279634948
rwrist -59.94566374457847
rhand -38.919767365068246 -7.774011016742854
rfingers 7.125020000000003
rthumb -12.86111071550873 -33.60104518772391
125
root -5.883737688021172 18.010268868779384 -0.3268890672803564 -149.69587580967644 21.175916121569415 -160.22983593000527
lfemur -21.48903653534845 -3.3846479033524366 -11.373475326304483
ltibia 21.206200423249342
lfoot 25.235152317823534 -14.860525884589709
ltoes 39.7142781426214
rfemur 6.159245166080359 -5.077094210444046 17.457695993032623
rtibia 20.27371436552699
rfoot 27.709072719772898 -24.000304629518702
rtoes 10.05639636182247
lowerback -5.799418993541406 6.793607260274733 0.14342862269774026
upperback -4.226147468307053 9.000975825875006 1.8225748215232875
thorax -2.5097460337421245 4.04068478837531 0.3904768480697396
lowerneck -14.460317350401711 -1.316359403977965 0.8985517878460836
upperneck 9.64017556305928 -2.52169180272593 2.0039286880355585
head 7.040526923414683 -0.2899252674408743 0.10466513517956111
lclavicle -6.9973072378902505e-15 -4.909849386684265e-15
lhumerus 42.998368549661066 -5.265121893721183 72.9853441190063
lradius 49.630450801488564
lwrist 15.23597322101265
lhand -3.153384887282442 34.05482169933347
lfingers 7.125020000000003
lthumb -167.37752778044 215.48613123750047
rclavicle -7.029606512851159e-15 -5.164846862221691e-15
rhumerus 47.381486571715975 34.760285230287316 -75.53606611297123
rradius 56.14503350991204
rwrist -59.79645506820178
rhand -39.10003720981089 -7.995774574966859
rfingers 7.125020000000003
rthumb -12.993093495286889 -33.85275173385945
126
root -5.903504464253945 18.007912971056086 -0.30527841583198523 -149.7574003723868 21.900097902212483 -160.34120597567747
lfemur -21.285573530067914 -3.2864751344430347 -11.856552068719033
ltibia 20.901725293402862
lfoot 25.399046612513406 -15.158454742398131
ltoes 39.844342245402004
rfemur 6.718834325845188 -5.673525815566186 17.420279276370486
rtibia 20.052196920696517
rfoot 27.920952944602206 -24.036498729493225
rtoes 10.129878336891176
lowerback -5.862758491722588 6.718160786133646 0.02574549245812041
upperback -4.1423811989645465 9.0165551349434 1.785898701252821
thorax -2.408190202089584 4.058353802158538 0.47342108179295717
lowerneck -14.756360907544146 -1.3463228276054962 1.1628975549428195
upperneck 9.693215057043062 -2.338008681468338 1.7518357237738984
head 6.934054311088688 -0.24251510258437692 -0.0021907895656956278
lclavicle -6.999309957925786e-15 -4.923244605229661e-15
lhumerus 41.89391157402038 -5.906423231231148 73.12307611724867
lradius 49.95789446072551
lwrist 15.121919948253804
lhand -2.9233071360786465 34.68668207968943
lfingers 7.125020000000003
lthumb -166.7702323413897 219.82090102262057
rclavicle -7.028779211983661e-15 -5.164279361483119e-15
rhumerus 46.86474447974753 34.83038016188205 -75.44573712920082
rradius 55.42336767233166
rwrist -59.52006356740334
rhand -39.15844789931284 -8.192793142482259
rfingers 7.125020000000003
rthumb -12.972738987636959 -34.071421949178784
127
root -5.918562692250163 18.015437087451716 -0.2869552914172857 -149.59611017550424 22.685292466923514 -160.32755470660555
lfemur -21.09582720301761 -3.1747300716179883 -12.30190150266552
ltibia 20.61000444109918
lfoot 25.562183496507558 -15.616122732105758
ltoes 39.92499464795527
rfemur 7.235356322027437 -6.1938572501602325 17.393815805182577
rtibia 19.693008297966234
rfoot 28.247424123180004 -24.167509710603827
rtoes 10.137524112030095
lowerback -5.908767056286352 6.6674133484786395 -0.053514902984148516
upperback -4.045747248421503 9.023224835942711 1.7243497367458183
thorax -2.302194353973108 4.067498608613253 0.5415624004814668
lowerneck -15.010192146569796 -1.4080082376782412 1.433632337321023
upperneck 9.794799428355155 -2.192375110369026 1.529077104960166
head 6.8437811235235895 -0.187432905911334 -0.10328089139517427
lclavicle -6.9998419189773e-15 -4.9378887282889525e-15
lhumerus 40.82246893589099 -6.577235633927923 73.188907920691
lradius 50.191897273236314
lwrist 15.36689407872972
lhand -2.6239543794054363 35.12156782754968
lfingers 7.125020000000003
lthumb -166.45242017754373 224.5509248496712
rclavicle -7.0281844396277016e-15 -5.163898925720854e-15
rhumerus 46.4906513670137 34.81317902792201 -75.38299209917047
rradius 54.634645902158915
rwrist -59.39054376136298
rhand -39.123906933499 -8.293978991428645
rfingers 7.125020000000003
rthumb -12.95943732079809 -34.16609377599519
